<svg width="205" height="28" viewBox="0 0 205 28" fill="none" xmlns="http://www.w3.org/2000/svg">
<path d="M12.1932 0.818181H15.3636V19.5341C15.3636 21.2045 15.0568 22.6236 14.4432 23.7912C13.8295 24.9588 12.9645 25.8452 11.848 26.4503C10.7315 27.0554 9.41477 27.358 7.89773 27.358C6.46591 27.358 5.19176 27.098 4.07528 26.5781C2.95881 26.0497 2.08097 25.2997 1.44176 24.3281C0.802557 23.3565 0.482955 22.2017 0.482955 20.8636H3.60227C3.60227 21.6051 3.78551 22.2528 4.15199 22.8068C4.52699 23.3523 5.03835 23.7784 5.68608 24.0852C6.33381 24.392 7.07102 24.5455 7.89773 24.5455C8.80966 24.5455 9.58523 24.3537 10.2244 23.9702C10.8636 23.5866 11.3494 23.0241 11.6818 22.2827C12.0227 21.5327 12.1932 20.6165 12.1932 19.5341V0.818181ZM29.2855 27.4091C27.5128 27.4091 25.9574 26.9872 24.6193 26.1435C23.2898 25.2997 22.25 24.1193 21.5 22.6023C20.7585 21.0852 20.3878 19.3125 20.3878 17.2841C20.3878 15.2386 20.7585 13.4531 21.5 11.9276C22.25 10.402 23.2898 9.21733 24.6193 8.37358C25.9574 7.52983 27.5128 7.10795 29.2855 7.10795C31.0582 7.10795 32.6094 7.52983 33.9389 8.37358C35.277 9.21733 36.3168 10.402 37.0582 11.9276C37.8082 13.4531 38.1832 15.2386 38.1832 17.2841C38.1832 19.3125 37.8082 21.0852 37.0582 22.6023C36.3168 24.1193 35.277 25.2997 33.9389 26.1435C32.6094 26.9872 31.0582 27.4091 29.2855 27.4091ZM29.2855 24.6989C30.6321 24.6989 31.7401 24.3537 32.6094 23.6634C33.4787 22.973 34.1222 22.0653 34.5398 20.9403C34.9574 19.8153 35.1662 18.5966 35.1662 17.2841C35.1662 15.9716 34.9574 14.7486 34.5398 13.6151C34.1222 12.4815 33.4787 11.5653 32.6094 10.8665C31.7401 10.1676 30.6321 9.81818 29.2855 9.81818C27.9389 9.81818 26.831 10.1676 25.9616 10.8665C25.0923 11.5653 24.4489 12.4815 24.0312 13.6151C23.6136 14.7486 23.4048 15.9716 23.4048 17.2841C23.4048 18.5966 23.6136 19.8153 24.0312 20.9403C24.4489 22.0653 25.0923 22.973 25.9616 23.6634C26.831 24.3537 27.9389 24.6989 29.2855 24.6989ZM48.5671 27.4602C47.3228 27.4602 46.1935 27.2259 45.1793 26.7571C44.1651 26.2798 43.3597 25.5938 42.7631 24.6989C42.1665 23.7955 41.8683 22.7045 41.8683 21.4261C41.8683 20.3011 42.0898 19.3892 42.533 18.6903C42.9762 17.983 43.5685 17.429 44.31 17.0284C45.0515 16.6278 45.8697 16.3295 46.7646 16.1335C47.668 15.929 48.5756 15.767 49.4876 15.6477C50.6808 15.4943 51.6481 15.3793 52.3896 15.3026C53.1396 15.2173 53.685 15.0767 54.0259 14.8807C54.3754 14.6847 54.5501 14.3437 54.5501 13.858V13.7557C54.5501 12.4943 54.2049 11.5142 53.5146 10.8153C52.8327 10.1165 51.7972 9.76705 50.408 9.76705C48.9677 9.76705 47.8384 10.0824 47.0202 10.7131C46.2021 11.3437 45.6268 12.017 45.2944 12.733L42.4308 11.7102C42.9421 10.517 43.6239 9.58807 44.4762 8.9233C45.337 8.25 46.2745 7.78125 47.2887 7.51705C48.3114 7.24432 49.3171 7.10795 50.3058 7.10795C50.9364 7.10795 51.6609 7.18466 52.479 7.33807C53.3058 7.48295 54.1026 7.78551 54.8697 8.24574C55.6452 8.70597 56.2887 9.40057 56.8001 10.3295C57.3114 11.2585 57.5671 12.5028 57.5671 14.0625V27H54.5501V24.3409H54.3967C54.1921 24.767 53.8512 25.223 53.3739 25.7088C52.8967 26.1946 52.2617 26.608 51.4691 26.9489C50.6765 27.2898 49.7092 27.4602 48.5671 27.4602ZM49.0273 24.75C50.2205 24.75 51.2262 24.5156 52.0444 24.0469C52.8711 23.5781 53.4933 22.973 53.9109 22.2315C54.337 21.4901 54.5501 20.7102 54.5501 19.892V17.1307C54.4222 17.2841 54.141 17.4247 53.7063 17.5526C53.2802 17.6719 52.7859 17.7784 52.2234 17.8722C51.6694 17.9574 51.1282 18.0341 50.5998 18.1023C50.0799 18.1619 49.658 18.2131 49.3342 18.2557C48.5501 18.358 47.8171 18.5241 47.1353 18.7543C46.462 18.9759 45.9165 19.3125 45.4989 19.7642C45.0898 20.2074 44.8853 20.8125 44.8853 21.5795C44.8853 22.6278 45.2731 23.4205 46.0487 23.9574C46.8327 24.4858 47.8256 24.75 49.0273 24.75ZM66.0909 15.1875V27H63.0739V7.36364H65.9886V10.4318H66.2443C66.7045 9.43466 67.4034 8.63352 68.3409 8.02841C69.2784 7.41477 70.4886 7.10795 71.9716 7.10795C73.3011 7.10795 74.4645 7.38068 75.4616 7.92614C76.4588 8.46307 77.2344 9.28125 77.7884 10.3807C78.3423 11.4716 78.6193 12.8523 78.6193 14.5227V27H75.6023V14.7273C75.6023 13.1847 75.2017 11.983 74.4006 11.1222C73.5994 10.2528 72.5 9.81818 71.1023 9.81818C70.1392 9.81818 69.2784 10.027 68.5199 10.4446C67.7699 10.8622 67.1776 11.4716 66.7429 12.2727C66.3082 13.0739 66.0909 14.0455 66.0909 15.1875ZM112.564 9C112.283 8.1392 111.912 7.3679 111.452 6.68608C111 5.99574 110.459 5.40767 109.828 4.92188C109.206 4.43608 108.499 4.06534 107.706 3.80966C106.914 3.55398 106.044 3.42614 105.098 3.42614C103.547 3.42614 102.137 3.8267 100.867 4.62784C99.5969 5.42898 98.587 6.60938 97.837 8.16903C97.087 9.72869 96.712 11.642 96.712 13.9091C96.712 16.1761 97.0913 18.0895 97.8498 19.6491C98.6083 21.2088 99.6353 22.3892 100.931 23.1903C102.226 23.9915 103.684 24.392 105.303 24.392C106.803 24.392 108.124 24.0724 109.266 23.4332C110.417 22.7855 111.311 21.8736 111.951 20.6974C112.598 19.5128 112.922 18.1193 112.922 16.517L113.894 16.7216H106.019V13.9091H115.99V16.7216C115.99 18.8778 115.53 20.7528 114.61 22.3466C113.698 23.9403 112.436 25.1761 110.826 26.054C109.223 26.9233 107.382 27.358 105.303 27.358C102.985 27.358 100.948 26.8125 99.1921 25.7216C97.445 24.6307 96.0813 23.0795 95.1012 21.0682C94.1296 19.0568 93.6438 16.6705 93.6438 13.9091C93.6438 11.8381 93.9208 9.97585 94.4748 8.32244C95.0373 6.66051 95.8299 5.24574 96.8526 4.07812C97.8754 2.91051 99.0856 2.01563 100.483 1.39347C101.881 0.771306 103.419 0.460226 105.098 0.460226C106.479 0.460226 107.766 0.669033 108.959 1.08665C110.161 1.49574 111.23 2.07954 112.168 2.83807C113.114 3.58807 113.902 4.48721 114.533 5.53551C115.164 6.57528 115.598 7.73011 115.837 9H112.564ZM129.244 27.4091C127.352 27.4091 125.72 26.9915 124.348 26.1562C122.984 25.3125 121.932 24.1364 121.19 22.6278C120.457 21.1108 120.091 19.3466 120.091 17.3352C120.091 15.3239 120.457 13.5511 121.19 12.017C121.932 10.4744 122.963 9.27273 124.284 8.41193C125.614 7.54261 127.165 7.10795 128.938 7.10795C129.96 7.10795 130.97 7.27841 131.967 7.61932C132.964 7.96023 133.872 8.5142 134.69 9.28125C135.509 10.0398 136.161 11.0455 136.646 12.2983C137.132 13.5511 137.375 15.0937 137.375 16.9261V18.2045H122.239V15.5966H134.307C134.307 14.4886 134.085 13.5 133.642 12.6307C133.207 11.7614 132.585 11.0753 131.776 10.5724C130.974 10.0696 130.028 9.81818 128.938 9.81818C127.736 9.81818 126.696 10.1165 125.818 10.7131C124.949 11.3011 124.28 12.0682 123.811 13.0142C123.342 13.9602 123.108 14.9744 123.108 16.0568V17.7955C123.108 19.2784 123.364 20.5355 123.875 21.5668C124.395 22.5895 125.115 23.3693 126.036 23.9062C126.956 24.4347 128.026 24.6989 129.244 24.6989C130.037 24.6989 130.753 24.5881 131.392 24.3665C132.04 24.1364 132.598 23.7955 133.067 23.3438C133.536 22.8835 133.898 22.3125 134.153 21.6307L137.068 22.4489C136.761 23.4375 136.246 24.3068 135.521 25.0568C134.797 25.7983 133.902 26.3778 132.837 26.7955C131.771 27.2045 130.574 27.4091 129.244 27.4091ZM141.964 27V7.36364H144.879V10.3295H145.084C145.442 9.35795 146.089 8.5696 147.027 7.96449C147.964 7.35937 149.021 7.05682 150.197 7.05682C150.419 7.05682 150.696 7.06108 151.028 7.0696C151.361 7.07812 151.612 7.09091 151.783 7.10795V10.1761C151.68 10.1506 151.446 10.1122 151.08 10.0611C150.722 10.0014 150.342 9.97159 149.942 9.97159C148.987 9.97159 148.135 10.1719 147.385 10.5724C146.643 10.9645 146.055 11.5099 145.621 12.2088C145.195 12.8991 144.982 13.6875 144.982 14.5739V27H141.964ZM161.137 27.4602C159.893 27.4602 158.764 27.2259 157.75 26.7571C156.735 26.2798 155.93 25.5938 155.333 24.6989C154.737 23.7955 154.439 22.7045 154.439 21.4261C154.439 20.3011 154.66 19.3892 155.103 18.6903C155.547 17.983 156.139 17.429 156.88 17.0284C157.622 16.6278 158.44 16.3295 159.335 16.1335C160.238 15.929 161.146 15.767 162.058 15.6477C163.251 15.4943 164.218 15.3793 164.96 15.3026C165.71 15.2173 166.255 15.0767 166.596 14.8807C166.946 14.6847 167.12 14.3437 167.12 13.858V13.7557C167.12 12.4943 166.775 11.5142 166.085 10.8153C165.403 10.1165 164.368 9.76705 162.978 9.76705C161.538 9.76705 160.409 10.0824 159.591 10.7131C158.772 11.3437 158.197 12.017 157.865 12.733L155.001 11.7102C155.512 10.517 156.194 9.58807 157.047 8.9233C157.907 8.25 158.845 7.78125 159.859 7.51705C160.882 7.24432 161.887 7.10795 162.876 7.10795C163.507 7.10795 164.231 7.18466 165.049 7.33807C165.876 7.48295 166.673 7.78551 167.44 8.24574C168.216 8.70597 168.859 9.40057 169.37 10.3295C169.882 11.2585 170.137 12.5028 170.137 14.0625V27H167.12V24.3409H166.967C166.762 24.767 166.422 25.223 165.944 25.7088C165.467 26.1946 164.832 26.608 164.039 26.9489C163.247 27.2898 162.279 27.4602 161.137 27.4602ZM161.598 24.75C162.791 24.75 163.797 24.5156 164.615 24.0469C165.441 23.5781 166.064 22.973 166.481 22.2315C166.907 21.4901 167.12 20.7102 167.12 19.892V17.1307C166.993 17.2841 166.711 17.4247 166.277 17.5526C165.85 17.6719 165.356 17.7784 164.794 17.8722C164.24 17.9574 163.699 18.0341 163.17 18.1023C162.65 18.1619 162.228 18.2131 161.904 18.2557C161.12 18.358 160.387 18.5241 159.706 18.7543C159.032 18.9759 158.487 19.3125 158.069 19.7642C157.66 20.2074 157.456 20.8125 157.456 21.5795C157.456 22.6278 157.843 23.4205 158.619 23.9574C159.403 24.4858 160.396 24.75 161.598 24.75ZM175.644 27V7.36364H178.559V10.3295H178.763C179.121 9.35795 179.769 8.5696 180.707 7.96449C181.644 7.35937 182.701 7.05682 183.877 7.05682C184.099 7.05682 184.376 7.06108 184.708 7.0696C185.04 7.07812 185.292 7.09091 185.462 7.10795V10.1761C185.36 10.1506 185.126 10.1122 184.759 10.0611C184.401 10.0014 184.022 9.97159 183.621 9.97159C182.667 9.97159 181.815 10.1719 181.065 10.5724C180.323 10.9645 179.735 11.5099 179.3 12.2088C178.874 12.8991 178.661 13.6875 178.661 14.5739V27H175.644ZM195.856 27.4091C194.219 27.4091 192.775 26.9957 191.522 26.169C190.269 25.3338 189.289 24.1577 188.582 22.6406C187.874 21.1151 187.521 19.3125 187.521 17.233C187.521 15.1705 187.874 13.3807 188.582 11.8636C189.289 10.3466 190.273 9.17472 191.535 8.34801C192.796 7.52131 194.254 7.10795 195.907 7.10795C197.185 7.10795 198.195 7.32102 198.937 7.74716C199.687 8.16477 200.258 8.64205 200.65 9.17898C201.05 9.70739 201.362 10.142 201.583 10.483H201.839V0.818181H204.856V27H201.941V23.983H201.583C201.362 24.3409 201.046 24.7926 200.637 25.3381C200.228 25.875 199.644 26.3565 198.886 26.7827C198.127 27.2003 197.117 27.4091 195.856 27.4091ZM196.265 24.6989C197.475 24.6989 198.498 24.3835 199.333 23.7528C200.168 23.1136 200.803 22.2315 201.238 21.1065C201.673 19.973 201.89 18.6648 201.89 17.1818C201.89 15.7159 201.677 14.4332 201.251 13.3338C200.825 12.2259 200.194 11.3651 199.359 10.7514C198.523 10.1293 197.492 9.81818 196.265 9.81818C194.987 9.81818 193.921 10.1463 193.069 10.8026C192.225 11.4503 191.59 12.3324 191.164 13.4489C190.746 14.5568 190.538 15.8011 190.538 17.1818C190.538 18.5795 190.751 19.8494 191.177 20.9915C191.612 22.125 192.251 23.0284 193.094 23.7017C193.947 24.3665 195.004 24.6989 196.265 24.6989Z" fill="black"/>
</svg>
